<svg width="40" height="40" viewBox="0 0 40 40" fill="none" xmlns="http://www.w3.org/2000/svg">
<circle cx="20" cy="20" r="20" fill="#006778"/>
<g clip-path="url(#clip0_2404_1269)">
<path fill-rule="evenodd" clip-rule="evenodd" d="M9.82663 16.2342H14.1431V30.4899H9.82663V16.2342ZM12.0199 9C13.4118 9 14.5399 10.129 14.5399 11.522C14.5399 12.9151 13.4118 14.0441 12.0199 14.0441C10.6281 14.0441 9.5 12.9146 9.5 11.522C9.5 10.1295 10.6281 9 12.0199 9ZM20.7785 18.1731C23.5686 14.494 31 14.865 31 21.8352V30.5H26.6432L26.6547 22.8664C26.6547 18.2622 21.1804 19.1915 20.9904 22.6795V30.4904H16.674V16.2342H20.7785V18.1731Z" fill="#ECE8E2"/>
</g>
<defs>
<clipPath id="clip0_2404_1269">
<rect width="21.5" height="21.5" fill="white" transform="translate(9.5 9)"/>
</clipPath>
</defs>
</svg>
