<svg width="40" height="40" viewBox="0 0 40 40" fill="none" xmlns="http://www.w3.org/2000/svg">
<circle cx="20" cy="20" r="20" fill="#006778"/>
<g clip-path="url(#clip0_2404_1270)">
<path d="M30.5 30L22.0972 18.6599L29.2615 10H26.0318L20.5713 16.6008L15.6801 10H9L17.6911 21.7288L17.0476 20.8608L9.48646 30H12.7161L18.5735 22.9194L23.8199 30H30.5ZM12.9604 11.7927H14.6978C14.7315 11.7927 14.763 11.809 14.7834 11.8362L26.5959 27.858C26.6491 27.9301 26.5986 28.0333 26.5103 28.0333H24.7729C24.7392 28.0333 24.7077 28.017 24.6873 27.9899L12.8748 11.968C12.8216 11.896 12.8722 11.7927 12.9604 11.7927Z" fill="#ECE8E3"/>
</g>
<defs>
<clipPath id="clip0_2404_1270">
<rect width="21.5" height="20" fill="white" transform="translate(9 10)"/>
</clipPath>
</defs>
</svg>
